<svg xmlns="http://www.w3.org/2000/svg" width="8.201" height="12.741" viewBox="0 0 8.201 12.741">
  <g id="Group_3142" data-name="Group 3142" transform="translate(0 -6.028)">
    <g id="Group_531" data-name="Group 531" transform="translate(0 6.028)">
      <path id="Path_1802" data-name="Path 1802" d="M295.154,1875.06a.7.7,0,0,0-.048-.06q-.85-.85-1.7-1.7a.3.3,0,0,0-.062-.039l4.559-4.567-4.555-4.555.054-.056,1.7-1.705a.694.694,0,0,0,.048-.059h.013l.063.065,6.241,6.24a.531.531,0,0,0,.074.052l0,.028a.412.412,0,0,0-.058.041l-2.474,2.47-3.78,3.779-.063.065Z" transform="translate(-293.343 -1862.319)" fill="#fff"/>
    </g>
  </g>
</svg>
